<?xml version="1.0" ?>
<!-- Uploaded to: SVG Repo, www.svgrepo.com, Generator: SVG Repo Mixer Tools -->
<svg width="800px" height="800px" viewBox="0 0 32 32" xmlns="http://www.w3.org/2000/svg">
<defs>
<style>.cls-1{fill:#231f20;}</style>
</defs>
<g id="compose">
<path class="cls-1" d="M5.65,28.35a2,2,0,0,1-1.84-2.79L4.86,23.1a2,2,0,0,1,.42-.62L23.35,4.24a2,2,0,0,1,1.41-.59h0a2,2,0,0,1,1.41.59l1.58,1.58a2,2,0,0,1,.59,1.41,2,2,0,0,1-.6,1.42L9.52,26.72a2,2,0,0,1-.62.42L6.44,28.19A2.18,2.18,0,0,1,5.65,28.35ZM24.77,5.65,6.7,23.88l-1,2.47L8.12,25.3,26.35,7.23h0Z"/>
</g>
</svg>